HIERARCHY
ROOT Hips
{
  OFFSET 34.9442 102.479 -81.0097
  CHANNELS 6 Xposition Yposition Zposition Zrotation Xrotation Yrotation
  JOINT RightUpLeg
  {
    OFFSET -8.9458 -8.66707 0.101652
    CHANNELS 3 Zrotation Xrotation Yrotation
    JOINT RightLeg
    {
      OFFSET 0 -44.4227 1.3727
      CHANNELS 3 Zrotation Xrotation Yrotation
      JOINT RightFoot
      {
        OFFSET 0.253549 -42.0924 -1.46059
        CHANNELS 3 Zrotation Xrotation Yrotation
        JOINT RightToes
        {
          OFFSET 0.04 -4.41509 8.4991
          CHANNELS 3 Zrotation Xrotation Yrotation
          End Site
          {
            OFFSET -0.08 -0.137448 9.77979
          }
        }
      }
    }
  }
  JOINT Spine
  {
    OFFSET 0 11.8905 0
    CHANNELS 3 Zrotation Xrotation Yrotation
    JOINT Spine1
    {
      OFFSET 0 25.6574 0.127663
      CHANNELS 3 Zrotation Xrotation Yrotation
      JOINT HEad
      {
        OFFSET 0 8.73416 0.011341
        CHANNELS 3 Zrotation Xrotation Yrotation
        End Site
        {
          OFFSET -0.29 12.7742 2.51395
        }
      }
      JOINT LeftShoulder1
      {
        OFFSET 8.99 -0.362252 -0.22
        CHANNELS 3 Zrotation Xrotation Yrotation
        JOINT LeftArm
        {
          OFFSET 10.2827 -0.00338 0.322123
          CHANNELS 3 Zrotation Xrotation Yrotation
          JOINT LeftForeArm
          {
            OFFSET 32.7669 0.099144 -1.42434
            CHANNELS 3 Zrotation Xrotation Yrotation
            JOINT LeftHand
            {
              OFFSET 27.5643 0.085362 1.02216
              CHANNELS 3 Zrotation Xrotation Yrotation
              End Site
              {
                OFFSET 16.7443 -0.6 1.50291
              }
            }
          }
        }
      }
      JOINT RightShoulder
      {
        OFFSET -8.99 -0.362252 -0.22
        CHANNELS 3 Zrotation Xrotation Yrotation
        JOINT RightArm
        {
          OFFSET -10.2827 -0.00338 0.322123
          CHANNELS 3 Zrotation Xrotation Yrotation
          JOINT RightForeArm
          {
            OFFSET -32.8971 0.099144 -1.42434
            CHANNELS 3 Zrotation Xrotation Yrotation
            JOINT RightHand
            {
              OFFSET -27.4921 0.085362 1.02216
              CHANNELS 3 Zrotation Xrotation Yrotation
              End Site
              {
                OFFSET -16.6312 -0.6 1.50291
              }
            }
          }
        }
      }
    }
  }
  JOINT LeftUpLeg
  {
    OFFSET 8.9458 -8.66707 0.101652
    CHANNELS 3 Zrotation Xrotation Yrotation
    JOINT LeftLeg
    {
      OFFSET 0 -44.4227 1.3727
      CHANNELS 3 Zrotation Xrotation Yrotation
      JOINT LeftFoot
      {
        OFFSET -0.253549 -42.0924 -1.46059
        CHANNELS 3 Zrotation Xrotation Yrotation
        JOINT LeftToes
        {
          OFFSET -0.04 -4.41509 8.4991
          CHANNELS 3 Zrotation Xrotation Yrotation
          End Site
          {
            OFFSET 0.08 -0.047448 9.77979
          }
        }
      }
    }
  }
}
MOTION
Frames:	12
Frame Time:	0.0166667
34.6661 102.355 -82.8344 0.801852 0.0705189 -0.33704 -0.882739 -2.88754 -0.132772 5.07895 37.7778 3.38945 -1.87286 -4.57803 -0.169779 0.0462048 0.000533964 0.662642 -1.37632 3.33451 0.14581 -1.15319 11.4736 0.249118 4.47393 -3.23602 9.35265 3.29237e-016 3.18055e-015 -2.48481e-017 -101.14 -63.3839 -24.3656 -4.42493 12.5056 -7.91506 0.368473 9.90896 -0.00117927 -4.89005 0.401308 6.11303 105.825 -41.3295 32.2134 3.73461 12.5621 5.32508 -0.369625 9.91382 0.00119887 -3.37834 -22.6333 0.00257638 -4.20502 21.5191 17.0319 -0.616478 -9.2927 0.0523887 6.83779e-011 -1.45083e-010 3.60198e-012 
34.9442 102.479 -81.0097 0.885809 -0.157274 -0.253101 -1.50559 -4.21254 -1.65424 4.37425 41.2838 4.93398 -0.381048 -0.202454 -0.171879 -7.28182 -1.21984 1.85912 -1.57715 3.3404 0.172241 -1.18004 11.5356 0.246456 4.20382 -3.15365 9.359 1.86361e-016 -1.59028e-015 -1.2424e-016 -101.844 -63.4524 -25.1424 -4.14551 12.4613 -7.69993 0.368473 9.90896 -0.00117927 -5.02035 0.392719 6.17505 105.588 -42.3036 31.02 3.70553 12.5535 5.2697 -0.369625 9.91382 0.00119887 -3.17034 -21.6388 -0.10459 -5.24357 22.3998 17.3334 -0.817652 -10.6532 0.0313705 6.83795e-011 -1.45083e-010 3.60357e-012 
35.2157 102.587 -79.1928 1.0251 -0.401839 -0.18069 -2.11065 -5.55799 -3.15234 3.18335 44.7676 6.89795 0.942729 3.63442 -0.192353 -14.005 1.14882 3.33955 -1.86321 3.35175 0.212283 -1.21854 11.6348 0.242671 3.90791 -3.04843 9.35984 -4.34841e-016 1.59028e-015 1.49089e-016 -102.431 -63.4303 -25.799 -3.96131 12.4324 -7.57688 0.368473 9.90896 -0.00117927 -5.16701 0.380867 6.1863 105.285 -43.2167 29.8118 3.69299 12.545 5.14395 -0.369625 9.91382 0.00119887 -3.08127 -20.5746 -0.0383181 -6.08401 23.1842 17.4437 -0.958233 -11.9405 0.0156513 6.83756e-011 -1.45086e-010 3.60357e-012 
35.4698 102.633 -77.3882 1.36419 -0.728753 -0.139098 -2.58509 -6.94377 -4.72715 0.742337 48.3243 10.2297 1.87385 6.14731 -0.278457 -23.0306 14.021 8.00875 -2.4443 3.38436 0.297152 -1.32808 11.8912 0.24219 3.54034 -2.84295 9.34938 -2.11209e-016 0 -9.93923e-017 -102.68 -63.1656 -26.1043 -4.0374 12.4462 -7.7295 0.368473 9.90896 -0.00117927 -5.3933 0.356396 6.03816 104.87 -43.9174 28.5662 3.76709 12.5391 4.79952 -0.369625 9.91382 0.00119887 -3.3896 -19.2864 0.645861 -6.31589 23.7547 16.8642 -0.886305 -13.0472 0.0184877 6.83791e-011 -1.45083e-010 3.60516e-012 
35.7131 102.688 -75.6128 1.68766 -1.00836 -0.116557 -2.91367 -8.40266 -5.97121 -2.19429 51.5297 13.5369 2.42415 7.53713 -0.357353 -26.8719 30.6797 9.64896 -3.03212 3.41252 0.387654 -1.37697 12.094 0.227229 3.13589 -2.67798 9.32302 3.72721e-016 4.77083e-015 9.93923e-017 -102.751 -62.7802 -26.2402 -4.26119 12.4832 -7.97497 0.368473 9.90896 -0.00117927 -5.57522 0.334271 5.85343 104.426 -44.6266 27.4196 3.78341 12.5278 4.39989 -0.369625 9.91382 0.00119887 -3.8318 -17.9537 1.27553 -6.29375 24.0954 16.2701 -0.808638 -14.0018 0.0224238 6.83807e-011 -1.45084e-010 3.60357e-012 
35.9458 102.823 -73.8763 1.78094 -1.11513 -0.113177 -2.91433 -9.99473 -6.4281 -4.38653 54.2218 14.9222 2.50639 7.50324 -0.359606 0.851301 50.9681 -8.7965 -3.37481 3.41033 0.455893 -1.19705 12.0283 0.169941 2.66665 -2.70212 9.24292 -1.73937e-016 3.18055e-015 1.98785e-016 -102.715 -62.3634 -26.2878 -4.59258 12.5347 -8.16368 0.368473 9.90896 -0.00117927 -5.58019 0.329573 5.73588 104.039 -45.6123 26.544 3.55977 12.5001 4.08847 -0.369625 9.91382 0.00119887 -4.12483 -16.7034 1.21678 -6.26904 24.0946 16.3631 -0.933998 -14.7781 0.0107148 6.83803e-011 -1.45086e-010 3.60675e-012 
36.176 102.977 -72.2049 1.7859 -1.10224 -0.112615 -2.80019 -11.6949 -6.32025 -5.57948 56.3972 14.9282 2.16276 6.7653 -0.319378 49.102 56.869 -39.4424 -3.57213 3.39419 0.499148 -0.957729 11.8268 0.105048 2.27392 -2.81467 9.20227 2.23633e-016 1.59028e-015 4.96962e-017 -102.65 -61.8516 -26.3347 -4.97901 12.5958 -8.37966 0.368473 9.90896 -0.00117927 -5.49625 0.332714 5.63395 103.609 -46.6194 25.8056 3.27922 12.469 3.77734 -0.369625 9.91382 0.00119887 -4.37493 -15.5574 0.873681 -6.21799 23.9259 16.602 -1.10894 -15.4328 -0.00646978 6.83787e-011 -1.45083e-010 3.60039e-012 
36.4214 103.113 -70.6445 1.75369 -0.967043 -0.132375 -2.73443 -13.5237 -5.51413 -5.05213 57.8581 13.231 1.27011 6.02821 -0.234725 55.332 42.4682 -33.3428 -3.63264 3.37187 0.504906 -0.734534 11.5448 0.051052 2.09967 -2.99768 9.37869 9.93923e-017 3.18055e-015 1.98785e-016 -102.663 -61.2368 -26.4738 -5.37032 12.6618 -8.71026 0.368473 9.90896 -0.00117927 -5.40559 0.337402 5.55521 103.071 -47.4079 25.1439 3.08927 12.4459 3.39531 -0.369625 9.91382 0.00119887 -4.62001 -14.6006 0.370802 -6.21647 23.7176 16.6723 -1.25681 -16.0495 -0.0265698 6.83795e-011 -1.45083e-010 3.60675e-012 
36.6529 103.231 -69.1457 1.74248 -0.751418 -0.0710298 -2.68209 -15.3896 -4.60438 -3.70344 58.6728 10.9979 0.253209 5.03553 -0.146956 54.7949 24.3657 -25.6053 -3.57841 3.34339 0.474662 -0.63988 11.1991 0.0285225 2.11762 -3.15098 9.48145 1.2424e-016 1.59028e-015 2.98177e-016 -102.705 -60.4415 -26.7415 -5.7189 12.7218 -8.99595 0.368473 9.90896 -0.00117927 -5.19335 0.3488 5.4261 102.437 -48.1745 24.5116 2.91496 12.4246 3.03541 -0.369625 9.91382 0.00119887 -4.87552 -13.7665 -0.118733 -6.20324 23.4954 16.5932 -1.35463 -16.5212 -0.0431711 6.83779e-011 -1.45081e-010 3.60039e-012 
36.8473 103.323 -67.6721 1.83128 -0.468635 0.199606 -2.79886 -17.234 -4.28331 -2.6162 58.8861 9.87591 -0.461588 3.76624 -0.101884 52.5604 18.2671 -21.7168 -3.38639 3.31138 0.394421 -0.856391 10.7815 0.0753607 2.36929 -3.1102 9.20418 -8.19987e-016 3.18055e-015 -0 -102.675 -59.3461 -27.1485 -5.98147 12.7679 -9.10243 0.368473 9.90896 -0.00117927 -4.71557 0.375079 5.17274 101.638 -49.1058 23.807 2.71378 12.4019 2.79716 -0.369625 9.91382 0.00119887 -5.1856 -13.0377 -0.311911 -6.13343 23.3014 16.1901 -1.30763 -16.6605 -0.043434 6.83768e-011 -1.45082e-010 3.60516e-012 
37.0046 103.376 -66.2303 2.00091 -0.201832 0.58167 -3.01539 -18.9702 -4.19608 -1.5976 58.554 9.0787 -1.01244 2.21922 -0.0828513 48.1338 15.6561 -17.773 -3.20065 3.27575 0.298145 -1.24488 10.4222 0.157275 2.78541 -3.05128 8.77043 8.94531e-016 -1.59028e-015 1.98785e-016 -102.768 -58.0689 -27.8198 -6.09834 12.7891 -9.04058 0.368473 9.90896 -0.00117927 -4.1413 0.400943 4.80362 100.792 -49.9946 23.0979 2.53621 12.3812 2.5897 -0.369625 9.91382 0.00119887 -5.5595 -12.3592 -0.427428 -6.04025 23.2098 15.7316 -1.25327 -16.7916 -0.0437012 6.83821e-011 -1.45083e-010 3.60357e-012 
37.1084 103.364 -64.8172 2.29337 -0.0453532 1.06031 -3.33255 -20.4874 -4.18746 -0.61785 57.7582 8.17518 -1.38943 0.285864 -0.093178 44.9812 13.0219 -15.2334 -3.18435 3.23977 0.21715 -1.76696 10.258 0.258414 3.35439 -3.12216 8.27337 -1.98785e-016 -3.18055e-015 -3.97569e-016 -103.105 -56.6339 -28.8654 -5.97565 12.7668 -8.76265 0.368473 9.90896 -0.00117927 -3.57177 0.411604 4.24853 99.9878 -50.6728 22.4098 2.42865 12.3643 2.31505 -0.369625 9.91382 0.00119887 -6.06473 -11.6751 -0.691203 -5.9157 23.3365 15.5266 -1.35229 -17.2618 -0.062742 6.83791e-011 -1.45082e-010 3.60198e-012 
